<svg width="679" height="251" viewBox="0 0 679 251" fill="none" xmlns="http://www.w3.org/2000/svg">
<path d="M501.71 208.211C502.274 207.689 502.862 207.337 503.474 207.155C503.698 207.088 503.924 207.048 504.151 207.035C504.998 206.959 505.824 207.358 506.628 208.232C506.739 208.376 506.813 208.51 506.85 208.635C506.88 208.735 506.887 208.828 506.872 208.914C506.838 209.073 506.752 209.174 506.615 209.215L506.54 209.237C506.345 209.268 506.123 209.137 505.873 208.845C505.36 208.264 504.923 208.007 504.563 208.074C504.199 208.128 503.954 208.174 503.829 208.211C503.368 208.348 502.925 208.596 502.502 208.953C501.781 209.589 501.056 210.621 500.326 212.047C499.609 213.47 498.944 215.136 498.331 217.044C497.727 218.937 497.233 220.904 496.85 222.948C496.464 224.979 496.252 226.91 496.214 228.742C496.188 230.571 496.369 232.134 496.756 233.431L496.784 233.525C497.207 234.853 497.917 235.755 498.915 236.232C499.578 236.496 500.259 236.524 500.958 236.316L501.014 236.299C501.718 236.062 502.387 235.707 503.02 235.233C503.662 234.742 504.204 234.261 504.648 233.789C506.181 232.232 507.579 230.585 508.841 228.85C510.116 227.111 511.353 225.336 512.553 223.525C512.579 223.476 512.607 223.434 512.637 223.398C513.021 222.862 513.306 222.566 513.493 222.511C513.543 222.496 513.584 222.497 513.617 222.515C513.649 222.532 513.671 222.56 513.682 222.597C513.734 222.772 513.596 223.173 513.267 223.801C512.275 225.578 511.074 227.451 509.663 229.42C508.253 231.39 506.814 233.103 505.346 234.559C504.78 235.122 504.113 235.688 503.345 236.256C502.574 236.813 501.757 237.219 500.896 237.476C500.035 237.732 499.192 237.685 498.367 237.333C497.24 236.786 496.538 236.119 496.262 235.331C495.971 234.535 495.797 234.043 495.741 233.856C495.35 232.546 495.158 231.034 495.163 229.321C495.152 227.367 495.335 225.316 495.713 223.165C496.087 221.002 496.586 218.917 497.211 216.91C497.844 214.887 498.552 213.113 499.334 211.589C500.112 210.053 500.904 208.927 501.71 208.211ZM516.153 218.579C516.388 218.047 516.624 217.746 516.862 217.675C516.887 217.667 516.92 217.664 516.961 217.666C517.138 217.667 517.277 217.836 517.377 218.173C517.418 218.311 517.452 218.47 517.479 218.652C517.501 218.727 517.516 218.798 517.522 218.864C517.588 219.496 517.718 220.137 517.911 220.786C518.07 221.228 518.222 221.44 518.367 221.425C518.524 221.405 518.627 221.388 518.677 221.373C518.877 221.313 519.067 221.175 519.247 220.958C519.598 220.541 519.977 219.946 520.385 219.172C520.806 218.394 521.144 217.73 521.401 217.177C521.669 216.663 521.877 216.383 522.027 216.339C522.052 216.331 522.079 216.33 522.108 216.335C522.136 216.34 522.158 216.367 522.173 216.417C522.218 216.567 522.149 216.907 521.967 217.437C521.733 218.064 521.415 218.797 521.013 219.637C520.611 220.477 520.202 221.156 519.786 221.674C519.474 222.039 519.155 222.27 518.831 222.366C518.644 222.422 518.458 222.437 518.273 222.41C517.727 222.356 517.281 221.884 516.934 220.996L516.856 220.733C516.808 220.571 516.768 220.413 516.736 220.26C516.726 220.181 516.713 220.117 516.698 220.067C516.676 219.992 516.652 219.959 516.628 219.966C516.59 219.977 516.514 220.088 516.401 220.299L516.125 220.809C515.928 221.153 515.699 221.547 515.438 221.992C515.185 222.421 514.909 222.815 514.609 223.177C514.365 223.453 514.119 223.628 513.869 223.703C513.682 223.759 513.489 223.748 513.289 223.672C512.923 223.537 512.663 223.213 512.511 222.702L512.444 222.477C512.314 221.632 512.423 220.608 512.771 219.404C513.115 218.187 513.598 217.235 514.222 216.546C514.537 216.235 514.869 216.027 515.218 215.923C515.381 215.874 515.542 215.847 515.703 215.839C516.231 215.832 516.636 216.166 516.919 216.842L516.941 216.917C516.994 217.092 516.991 217.222 516.935 217.306C516.9 217.371 516.858 217.411 516.808 217.426C516.77 217.437 516.723 217.438 516.666 217.428C516.555 217.42 516.444 217.344 516.333 217.201C516.128 216.922 515.965 216.787 515.845 216.796C515.726 216.804 515.641 216.816 515.591 216.831C515.416 216.883 515.24 216.997 515.061 217.172C514.504 217.719 514.071 218.5 513.762 219.516C513.45 220.519 513.304 221.398 513.326 222.153C513.338 222.285 513.357 222.395 513.383 222.482C513.417 222.595 513.461 222.676 513.517 222.728C513.557 222.77 513.608 222.782 513.671 222.763C513.771 222.734 513.885 222.638 514.014 222.478C514.387 222 514.778 221.373 515.186 220.6C515.594 219.826 515.916 219.152 516.153 218.579ZM526.464 213.65C526.006 213.393 525.603 213.316 525.254 213.42C525.079 213.472 524.917 213.568 524.769 213.707C524.326 214.138 523.974 214.78 523.712 215.632C523.459 216.469 523.269 217.313 523.143 218.166C523.029 219.015 522.963 219.66 522.945 220.1C522.871 220.72 522.697 221.071 522.423 221.153C522.386 221.164 522.346 221.169 522.305 221.167C522.078 221.181 521.914 221.019 521.814 220.682C521.773 220.545 521.741 220.391 521.717 220.222L521.57 214.804C521.565 214.425 521.618 214.191 521.728 214.104C521.834 214.005 521.912 213.948 521.962 213.933C522.062 213.903 522.17 213.925 522.287 213.999C522.376 214.067 522.444 214.183 522.493 214.345C522.53 214.47 522.554 214.619 522.565 214.792L522.608 215.758L522.636 215.851C522.661 215.844 522.678 215.812 522.689 215.754C522.828 215.128 523.079 214.49 523.442 213.838C523.814 213.17 524.158 212.775 524.475 212.654C524.804 212.528 524.988 212.46 525.025 212.449C525.587 212.281 526.241 212.494 526.988 213.086C527.16 213.253 527.265 213.398 527.302 213.523C527.332 213.623 527.323 213.707 527.275 213.775C527.245 213.811 527.205 213.837 527.155 213.852C527.018 213.893 526.788 213.826 526.464 213.65ZM533.089 211.675C532.632 211.417 532.229 211.341 531.879 211.445C531.705 211.497 531.543 211.593 531.394 211.732C530.952 212.163 530.6 212.804 530.338 213.657C530.085 214.493 529.895 215.338 529.769 216.191C529.655 217.04 529.589 217.685 529.571 218.125C529.497 218.745 529.323 219.095 529.049 219.177C529.011 219.188 528.972 219.193 528.931 219.192C528.704 219.205 528.54 219.044 528.44 218.707C528.399 218.569 528.367 218.416 528.343 218.246L528.195 212.828C528.191 212.449 528.244 212.216 528.354 212.129C528.46 212.029 528.538 211.972 528.588 211.957C528.688 211.928 528.796 211.95 528.913 212.023C529.002 212.092 529.07 212.208 529.118 212.37C529.156 212.495 529.18 212.644 529.191 212.817L529.234 213.782L529.262 213.876C529.287 213.869 529.304 213.836 529.314 213.779C529.454 213.153 529.705 212.514 530.068 211.863C530.439 211.195 530.784 210.8 531.101 210.678C531.43 210.553 531.614 210.485 531.651 210.473C532.213 210.306 532.867 210.518 533.614 211.111C533.786 211.277 533.891 211.423 533.928 211.547C533.957 211.647 533.949 211.731 533.901 211.8C533.871 211.836 533.831 211.861 533.781 211.876C533.644 211.917 533.413 211.85 533.089 211.675ZM539.619 210.401C539.207 211.026 538.797 211.747 538.388 212.561C537.987 213.36 537.61 214.145 537.256 214.917C537.057 215.343 536.869 215.739 536.692 216.104C536.567 216.413 536.417 216.661 536.242 216.849C536.076 217.021 535.937 217.124 535.824 217.157C535.625 217.217 535.399 217.189 535.147 217.074C534.937 216.96 534.784 216.836 534.69 216.701C534.579 216.557 534.505 216.423 534.468 216.298C534.427 216.161 534.405 215.997 534.403 215.808C534.4 215.252 534.469 214.593 534.609 213.831C534.745 213.057 534.903 212.405 535.085 211.875C535.203 211.541 535.355 211.346 535.543 211.29C535.717 211.238 535.84 211.263 535.911 211.364C535.978 211.452 536.019 211.522 536.034 211.572C536.079 211.721 536.066 211.929 535.996 212.194C535.809 212.753 535.669 213.263 535.576 213.726C535.495 214.185 535.433 214.726 535.388 215.351C535.366 215.643 535.374 215.851 535.411 215.976C535.437 216.063 535.473 216.114 535.518 216.128C535.546 216.133 535.573 216.132 535.598 216.124C535.723 216.087 535.865 215.902 536.024 215.569C536.148 215.301 536.289 215.001 536.448 214.668C536.816 213.852 537.218 212.992 537.655 212.087C538.092 211.182 538.499 210.429 538.877 209.827C539.042 209.561 539.193 209.359 539.329 209.224C539.477 209.084 539.614 208.996 539.739 208.959C539.876 208.918 540.037 208.911 540.222 208.937C540.512 209 540.708 209.111 540.81 209.271C540.909 209.419 540.986 209.586 541.042 209.773C541.064 209.848 541.082 209.931 541.095 210.022C541.2 210.371 541.286 210.821 541.355 211.371C541.436 211.918 541.501 212.476 541.549 213.046C541.553 213.153 541.563 213.232 541.578 213.282C541.597 213.344 541.627 213.376 541.668 213.377C541.73 213.359 541.818 213.264 541.93 213.095C542.57 212.143 543.346 211.212 544.256 210.302C544.609 209.98 544.891 209.787 545.103 209.724C545.203 209.694 545.283 209.69 545.344 209.713C545.389 209.727 545.417 209.752 545.428 209.79C545.473 209.94 545.27 210.285 544.821 210.827C543.773 212.009 542.873 213.228 542.12 214.485C541.816 214.97 541.619 215.402 541.529 215.783C541.435 216.15 541.37 216.639 541.334 217.247C541.08 220.91 540.319 224.37 539.049 227.63C538.913 227.996 538.762 228.265 538.596 228.437C538.421 228.625 538.278 228.736 538.165 228.769C537.966 228.829 537.722 228.786 537.434 228.641C537.232 228.511 537.098 228.333 537.031 228.109L537.014 228.053C536.956 227.812 536.925 227.549 536.922 227.265C536.895 226.172 537.053 224.97 537.396 223.659C537.722 222.339 538.133 221.048 538.626 219.787C539.116 218.513 539.578 217.397 540.012 216.439C540.229 215.98 540.376 215.583 540.452 215.248C540.525 214.9 540.556 214.456 540.544 213.916C540.555 212.676 540.44 211.515 540.199 210.432L540.154 210.282C540.102 210.107 540.032 210.033 539.945 210.059C539.857 210.085 539.749 210.199 539.619 210.401ZM540.023 218.799C539.428 220.037 538.91 221.468 538.471 223.094C538.04 224.703 537.822 225.998 537.815 226.978C537.807 227.225 537.816 227.392 537.842 227.48C537.864 227.555 537.894 227.587 537.932 227.575C538.007 227.553 538.104 227.402 538.224 227.121C538.633 226.212 539.035 225.032 539.431 223.582C539.841 222.128 540.113 220.559 540.25 218.875C540.264 218.694 540.263 218.579 540.248 218.529C540.241 218.504 540.231 218.493 540.218 218.497C540.181 218.508 540.116 218.609 540.023 218.799ZM563.445 204.663C563.593 204.157 563.742 203.881 563.892 203.837C563.904 203.833 563.925 203.834 563.953 203.839C564.027 203.858 564.079 203.917 564.108 204.017C564.153 204.167 564.147 204.42 564.09 204.776C563.992 205.268 563.9 205.757 563.815 206.244C563.607 207.461 563.366 208.681 563.092 209.904C562.827 211.111 562.487 212.272 562.072 213.388C561.806 214.092 561.461 214.643 561.037 215.042C560.709 215.357 560.371 215.566 560.021 215.67C559.922 215.7 559.729 215.737 559.443 215.782C559.154 215.813 558.809 215.658 558.408 215.316C557.99 214.965 557.663 214.39 557.425 213.591C557.194 212.817 557.04 211.892 556.964 210.814C556.887 209.736 556.856 208.631 556.872 207.499C556.875 206.37 556.896 205.325 556.935 204.362C556.941 204.197 556.943 204.047 556.944 203.911L557.073 199.287C557.075 199.11 557.064 198.984 557.042 198.909C557.027 198.859 557.012 198.83 556.995 198.821C556.979 198.812 556.946 198.815 556.896 198.83C556.821 198.852 556.715 198.904 556.576 198.987C554.78 200.025 553.088 201.073 551.501 202.13C551.35 202.216 551.212 202.277 551.087 202.315C550.962 202.352 550.851 202.365 550.752 202.353C550.605 202.316 550.517 202.247 550.487 202.147C550.476 202.11 550.485 202.025 550.514 201.895C550.53 201.767 550.725 201.58 551.1 201.332C552.774 200.249 554.625 199.14 556.651 198.006C556.789 197.924 556.892 197.86 556.96 197.812C557.036 197.749 557.08 197.668 557.091 197.569C557.115 197.467 557.13 197.313 557.137 197.107L557.224 193.983C557.254 193.581 557.353 193.3 557.523 193.14C557.596 193.064 557.663 193.017 557.726 192.998C557.813 192.972 557.903 193 557.995 193.081C558.067 193.141 558.122 193.234 558.159 193.358C558.207 193.52 558.231 193.738 558.231 194.009L558.146 196.664C558.132 196.845 558.136 196.973 558.158 197.047C558.169 197.085 558.183 197.108 558.199 197.117C558.216 197.125 558.242 197.124 558.28 197.113C558.342 197.094 558.432 197.054 558.549 196.992L558.568 196.986C560.286 196.094 562.016 195.313 563.76 194.644C564.598 194.312 565.423 194.025 566.234 193.784C567.108 193.523 567.969 193.314 568.819 193.156C569.362 193.062 569.938 193.012 570.548 193.007C571.17 192.998 571.731 193.103 572.231 193.321C572.263 193.338 572.298 193.362 572.334 193.392C572.382 193.418 572.454 193.478 572.55 193.572C572.655 193.649 572.735 193.734 572.789 193.827C572.813 193.86 572.83 193.896 572.842 193.933C572.856 193.983 572.851 194.033 572.824 194.081C572.807 194.114 572.786 194.133 572.761 194.141C572.736 194.148 572.697 194.153 572.643 194.156C572.598 194.142 572.539 194.126 572.465 194.107C572.404 194.084 572.357 194.064 572.325 194.047C571.813 193.832 571.254 193.734 570.647 193.752C570.041 193.77 569.471 193.838 568.935 193.957C568.086 194.115 567.23 194.322 566.37 194.579C565.509 194.836 564.429 195.225 563.131 195.748C561.829 196.259 560.334 196.963 558.645 197.86C558.469 197.953 558.343 198.032 558.267 198.095C558.187 198.146 558.135 198.223 558.111 198.325C558.1 198.424 558.091 198.576 558.084 198.781L557.92 204.109C557.887 204.866 557.863 205.831 557.846 207.005C557.841 208.175 557.872 209.348 557.937 210.524C558.002 211.7 558.13 212.606 558.32 213.243C558.494 213.829 558.712 214.24 558.972 214.475C559.216 214.701 559.471 214.781 559.737 214.716L559.83 214.688C560.068 214.617 560.302 214.445 560.533 214.173C560.777 213.896 560.988 213.534 561.167 213.087C561.594 211.968 561.963 210.811 562.273 209.618C562.592 208.409 562.884 207.201 563.149 205.994C563.246 205.544 563.345 205.101 563.445 204.663ZM564.532 207.763C564.79 206.803 565.088 205.844 565.428 204.887C565.78 203.926 566.186 203.01 566.647 202.139C567.095 201.272 567.549 200.769 568.011 200.632C568.073 200.613 568.131 200.603 568.185 200.6C568.707 200.526 569.159 200.996 569.543 202.009C569.687 202.401 569.818 202.797 569.937 203.196C570.082 203.683 570.244 204.158 570.423 204.621C570.591 205.046 570.72 205.252 570.811 205.239C570.911 205.209 570.967 205.192 570.98 205.188C571.154 205.136 571.342 204.945 571.542 204.613C572.103 203.671 572.613 202.691 573.07 201.671C573.075 201.643 573.082 201.62 573.09 201.604C573.354 201.077 573.561 200.791 573.711 200.746C573.748 200.735 573.783 200.738 573.816 200.756C573.848 200.773 573.872 200.807 573.887 200.857C573.939 201.032 573.878 201.376 573.705 201.889C573.286 203.034 572.814 204.118 572.291 205.144C571.884 205.877 571.469 206.306 571.045 206.433C570.957 206.459 570.873 206.47 570.79 206.468C570.266 206.488 569.822 206.023 569.457 205.072L569.23 204.446C569.026 203.855 568.812 203.273 568.587 202.702C568.424 202.289 568.286 202.078 568.175 202.071C568.077 202.059 568.009 202.059 567.971 202.07C567.809 202.119 567.625 202.323 567.42 202.683C566.817 203.76 566.306 205.006 565.885 206.422C565.465 207.838 565.112 209.159 564.825 210.386C564.611 211.17 564.36 211.605 564.073 211.691C564.01 211.709 563.951 211.713 563.893 211.703C563.68 211.672 563.529 211.506 563.44 211.207C563.376 210.995 563.34 210.713 563.331 210.363L563.524 193.308C563.584 192.597 563.739 192.204 563.988 192.13L564.045 192.113C564.214 192.09 564.34 192.215 564.422 192.49C564.481 192.689 564.516 192.964 564.525 193.315L564.366 207.751C564.371 207.859 564.379 207.931 564.39 207.968C564.397 207.993 564.407 208.004 564.42 208C564.445 207.993 564.482 207.914 564.532 207.763ZM575.078 201.093C575.273 200.79 575.436 200.449 575.568 200.07C575.7 199.691 575.781 199.348 575.811 199.04C575.819 198.929 575.815 198.849 575.8 198.799C575.774 198.711 575.718 198.681 575.63 198.707C575.58 198.722 575.507 198.771 575.409 198.854C574.976 199.269 574.631 199.82 574.374 200.508C574.126 201.18 573.977 201.822 573.929 202.434C573.901 202.932 573.933 203.336 574.026 203.648C574.13 203.998 574.308 204.23 574.56 204.345C574.824 204.457 575.106 204.468 575.405 204.378C575.692 204.293 575.994 204.121 576.312 203.864C576.964 203.316 577.565 202.689 578.115 201.981C578.673 201.257 579.197 200.531 579.686 199.801C579.781 199.664 579.872 199.535 579.958 199.414C580.199 199.084 580.388 198.898 580.526 198.857C580.576 198.842 580.617 198.844 580.649 198.861C580.682 198.879 580.703 198.906 580.714 198.944C580.752 199.068 580.663 199.319 580.449 199.695C579.969 200.545 579.424 201.407 578.816 202.282C578.219 203.152 577.567 203.904 576.859 204.536C576.38 204.937 575.929 205.201 575.505 205.327C575.28 205.394 575.065 205.424 574.859 205.418C574.254 205.394 573.836 205.2 573.605 204.834C573.374 204.468 573.224 204.173 573.157 203.948C573.023 203.499 572.977 202.956 573.018 202.318C573.073 201.636 573.24 200.921 573.519 200.172C573.811 199.419 574.204 198.799 574.697 198.312C574.973 198.053 575.236 197.887 575.486 197.812C575.71 197.745 575.918 197.758 576.109 197.851C576.344 197.957 576.505 198.154 576.59 198.441C576.654 198.653 576.678 198.917 576.664 199.234C576.628 199.571 576.538 199.951 576.392 200.375C576.256 200.782 576.084 201.139 575.876 201.446C575.617 201.808 575.388 202.019 575.189 202.079C575.114 202.101 575.038 202.097 574.96 202.065C574.883 202.034 574.835 201.987 574.817 201.925C574.768 201.763 574.855 201.485 575.078 201.093ZM617.843 183.065C617.785 182.919 617.701 182.726 617.589 182.488C617.474 182.237 617.339 182.012 617.184 181.814C617.026 181.603 616.855 181.484 616.67 181.457C616.588 181.455 616.51 181.465 616.435 181.487C616.26 181.539 616.098 181.655 615.948 181.836C615.725 182.093 615.555 182.32 615.438 182.518C614.71 183.768 614.104 185.062 613.62 186.402C613.215 187.46 612.76 188.486 612.255 189.479C611.829 190.285 611.426 190.847 611.045 191.165C610.677 191.478 610.374 191.67 610.137 191.741C609.875 191.819 609.609 191.817 609.34 191.734C608.843 191.57 608.375 190.982 607.938 189.971C607.809 189.629 607.687 189.265 607.571 188.878C607.382 188.242 607.211 187.532 607.059 186.748C606.819 185.488 606.602 184.215 606.409 182.927C606.238 181.809 606.079 180.865 605.931 180.094C605.783 179.323 605.64 178.707 605.502 178.245C605.424 177.983 605.347 177.748 605.271 177.539C605.026 176.946 604.817 176.656 604.644 176.666C604.479 176.661 604.366 176.668 604.304 176.686C604.104 176.746 603.905 176.9 603.708 177.149C603.463 177.467 603.235 177.82 603.025 178.209C602.573 179.064 602.179 179.997 601.842 181.007C601.504 182.018 601.213 183.002 600.969 183.958C600.279 186.568 599.686 189.205 599.189 191.866C598.227 197.072 597.421 202.298 596.771 207.547C596.687 208.129 596.549 208.51 596.358 208.689C596.176 208.852 596.028 208.95 595.916 208.984C595.754 209.032 595.6 208.996 595.456 208.876C595.319 208.781 595.215 208.615 595.144 208.378C595.077 208.154 595.037 207.86 595.024 207.497L594.679 184.875C594.689 184.451 594.751 184.181 594.866 184.065C594.99 183.933 595.089 183.856 595.164 183.834C595.264 183.804 595.364 183.822 595.465 183.887C595.553 183.956 595.622 184.071 595.67 184.233C595.715 184.383 595.746 184.578 595.763 184.817L596.039 202.833C596.036 202.915 596.042 202.981 596.057 203.031C596.072 203.081 596.094 203.109 596.122 203.114L596.141 203.108C596.179 203.097 596.214 203.012 596.248 202.852C596.345 202.266 596.436 201.682 596.521 201.1C596.694 200.042 596.87 198.991 597.048 197.946C597.486 195.316 597.966 192.686 598.487 190.058C598.947 187.774 599.487 185.507 600.107 183.257C600.578 181.418 601.206 179.628 601.991 177.885C602.384 177.062 602.772 176.45 603.156 176.05C603.54 175.651 603.875 175.408 604.162 175.322C604.374 175.259 604.588 175.25 604.805 175.294C605.309 175.388 605.775 175.949 606.204 176.976C606.333 177.318 606.459 177.695 606.582 178.107C606.76 178.705 606.924 179.37 607.074 180.1C607.315 181.319 607.532 182.572 607.726 183.859C607.899 185.031 608.068 186.033 608.235 186.866C608.399 187.687 608.555 188.347 608.703 188.846C608.778 189.096 608.853 189.325 608.929 189.533C609.217 190.181 609.458 190.51 609.651 190.521C609.857 190.527 610.003 190.517 610.09 190.491C610.303 190.428 610.514 190.27 610.724 190.017C611.011 189.66 611.265 189.258 611.485 188.812C611.943 187.887 612.356 186.949 612.725 185.997C613.242 184.633 613.867 183.312 614.6 182.034C615.243 181 615.852 180.397 616.426 180.226C616.6 180.174 616.774 180.163 616.946 180.193C617.675 180.316 618.303 181.1 618.829 182.546C618.916 182.792 619.004 183.065 619.094 183.364C619.354 184.238 619.625 185.305 619.906 186.566C620.241 188.056 620.533 189.24 620.781 190.117C621.037 190.978 621.188 191.483 621.233 191.633C621.653 193.043 622.148 194.315 622.717 195.45C623.336 196.706 624.085 197.576 624.963 198.062C625.3 198.233 625.485 198.375 625.518 198.487C625.544 198.575 625.47 198.644 625.295 198.696C625.183 198.73 625.034 198.754 624.848 198.768C624.056 198.801 623.336 198.391 622.687 197.538C622.035 196.672 621.491 195.666 621.054 194.519C620.629 193.369 620.274 192.313 619.987 191.352C619.842 190.865 619.703 190.377 619.571 189.886C619.173 188.415 618.839 187.068 618.569 185.844C618.327 184.802 618.125 184.013 617.965 183.476L617.843 183.065ZM626.21 185.767C626.445 185.235 626.681 184.934 626.918 184.863C626.943 184.856 626.976 184.852 627.017 184.854C627.194 184.855 627.333 185.025 627.434 185.361C627.475 185.499 627.509 185.658 627.536 185.841C627.558 185.915 627.572 185.986 627.578 186.052C627.645 186.684 627.775 187.325 627.968 187.974C628.127 188.416 628.279 188.629 628.423 188.613C628.581 188.593 628.684 188.576 628.734 188.561C628.934 188.501 629.123 188.363 629.303 188.146C629.655 187.729 630.034 187.134 630.442 186.36C630.862 185.582 631.201 184.918 631.458 184.366C631.725 183.851 631.934 183.571 632.084 183.527C632.109 183.519 632.136 183.518 632.164 183.523C632.193 183.528 632.215 183.556 632.23 183.606C632.274 183.755 632.206 184.095 632.024 184.625C631.79 185.252 631.472 185.985 631.07 186.825C630.668 187.665 630.259 188.344 629.843 188.862C629.53 189.227 629.212 189.458 628.888 189.554C628.7 189.61 628.515 189.625 628.33 189.598C627.784 189.544 627.338 189.072 626.991 188.184L626.913 187.922C626.865 187.759 626.824 187.602 626.792 187.448C626.782 187.37 626.77 187.305 626.755 187.255C626.733 187.181 626.709 187.147 626.684 187.154C626.647 187.165 626.571 187.276 626.457 187.487L626.181 187.997C625.985 188.341 625.756 188.735 625.495 189.18C625.242 189.609 624.966 190.004 624.666 190.365C624.422 190.641 624.175 190.817 623.926 190.891C623.739 190.947 623.545 190.937 623.346 190.86C622.98 190.725 622.72 190.401 622.568 189.89L622.501 189.665C622.371 188.821 622.48 187.796 622.828 186.592C623.171 185.375 623.655 184.423 624.279 183.734C624.593 183.423 624.926 183.215 625.275 183.111C625.437 183.063 625.599 183.035 625.76 183.028C626.287 183.02 626.693 183.354 626.976 184.031L626.998 184.105C627.05 184.28 627.048 184.41 626.992 184.495C626.957 184.559 626.914 184.599 626.864 184.614C626.827 184.625 626.78 184.626 626.722 184.616C626.611 184.608 626.5 184.532 626.39 184.389C626.184 184.11 626.022 183.975 625.902 183.984C625.782 183.992 625.697 184.004 625.648 184.019C625.473 184.071 625.296 184.185 625.118 184.36C624.56 184.907 624.128 185.688 623.819 186.704C623.507 187.708 623.361 188.587 623.382 189.341C623.395 189.473 623.414 189.583 623.44 189.67C623.473 189.783 623.518 189.865 623.574 189.916C623.614 189.958 623.665 189.97 623.727 189.952C623.827 189.922 623.941 189.827 624.07 189.666C624.444 189.188 624.835 188.562 625.243 187.788C625.651 187.014 625.973 186.34 626.21 185.767ZM636.52 180.839C636.063 180.581 635.66 180.504 635.31 180.608C635.136 180.66 634.974 180.756 634.825 180.896C634.383 181.326 634.031 181.968 633.769 182.821C633.515 183.657 633.326 184.502 633.199 185.354C633.086 186.204 633.02 186.848 633.002 187.289C632.928 187.908 632.754 188.259 632.48 188.341C632.442 188.352 632.403 188.357 632.362 188.356C632.135 188.369 631.971 188.207 631.871 187.87C631.83 187.733 631.797 187.58 631.774 187.41L631.626 181.992C631.622 181.613 631.675 181.38 631.785 181.293C631.891 181.193 631.969 181.136 632.019 181.121C632.119 181.091 632.227 181.113 632.344 181.187C632.433 181.256 632.501 181.371 632.549 181.533C632.586 181.658 632.611 181.807 632.621 181.981L632.665 182.946L632.693 183.039C632.718 183.032 632.735 183 632.745 182.942C632.885 182.316 633.136 181.678 633.499 181.026C633.87 180.358 634.214 179.963 634.531 179.842C634.861 179.716 635.044 179.648 635.082 179.637C635.643 179.47 636.298 179.682 637.045 180.274C637.217 180.441 637.321 180.586 637.359 180.711C637.388 180.811 637.379 180.895 637.332 180.963C637.302 181 637.262 181.025 637.212 181.04C637.075 181.081 636.844 181.014 636.52 180.839ZM643.146 178.863C642.689 178.605 642.285 178.529 641.936 178.633C641.761 178.685 641.6 178.781 641.451 178.92C641.009 179.351 640.657 179.993 640.395 180.845C640.141 181.682 639.951 182.526 639.825 183.379C639.712 184.228 639.646 184.873 639.627 185.313C639.554 185.933 639.38 186.284 639.106 186.365C639.068 186.377 639.029 186.382 638.988 186.38C638.761 186.394 638.597 186.232 638.496 185.895C638.456 185.758 638.423 185.604 638.4 185.434L638.252 180.017C638.248 179.637 638.301 179.404 638.41 179.317C638.517 179.218 638.595 179.16 638.645 179.145C638.744 179.116 638.853 179.138 638.97 179.211C639.058 179.28 639.127 179.396 639.175 179.558C639.212 179.683 639.236 179.832 639.247 180.005L639.291 180.971L639.318 181.064C639.343 181.057 639.361 181.024 639.371 180.967C639.511 180.341 639.762 179.702 640.124 179.051C640.496 178.383 640.84 177.988 641.157 177.866C641.487 177.741 641.67 177.673 641.708 177.662C642.269 177.494 642.924 177.707 643.671 178.299C643.843 178.465 643.947 178.611 643.984 178.735C644.014 178.835 644.005 178.919 643.958 178.988C643.928 179.024 643.888 179.05 643.838 179.064C643.701 179.105 643.47 179.038 643.146 178.863ZM649.675 177.589C649.264 178.214 648.854 178.935 648.444 179.75C648.044 180.548 647.667 181.333 647.312 182.105C647.113 182.531 646.926 182.927 646.749 183.292C646.624 183.601 646.474 183.849 646.299 184.037C646.133 184.209 645.993 184.312 645.881 184.345C645.681 184.405 645.456 184.377 645.204 184.262C644.993 184.148 644.841 184.024 644.746 183.889C644.636 183.745 644.562 183.611 644.524 183.486C644.483 183.349 644.462 183.186 644.46 182.996C644.457 182.44 644.525 181.781 644.665 181.019C644.801 180.245 644.96 179.593 645.142 179.063C645.26 178.729 645.412 178.534 645.599 178.478C645.774 178.426 645.897 178.451 645.968 178.552C646.035 178.64 646.076 178.71 646.091 178.76C646.135 178.909 646.123 179.117 646.052 179.383C645.866 179.941 645.726 180.451 645.633 180.914C645.552 181.373 645.489 181.915 645.445 182.539C645.423 182.831 645.431 183.039 645.468 183.164C645.494 183.252 645.529 183.302 645.574 183.316C645.603 183.321 645.63 183.32 645.655 183.312C645.779 183.275 645.921 183.09 646.08 182.757C646.204 182.49 646.346 182.189 646.505 181.856C646.873 181.04 647.275 180.18 647.712 179.275C648.149 178.37 648.556 177.617 648.934 177.015C649.099 176.749 649.249 176.548 649.386 176.412C649.534 176.272 649.671 176.184 649.796 176.147C649.933 176.106 650.094 176.099 650.278 176.125C650.569 176.188 650.765 176.3 650.867 176.459C650.965 176.607 651.042 176.774 651.098 176.961C651.121 177.036 651.138 177.119 651.152 177.21C651.256 177.559 651.343 178.009 651.412 178.559C651.493 179.106 651.558 179.664 651.605 180.234C651.61 180.341 651.62 180.42 651.635 180.47C651.653 180.532 651.683 180.564 651.724 180.565C651.787 180.547 651.874 180.453 651.987 180.283C652.627 179.331 653.402 178.401 654.313 177.49C654.665 177.168 654.948 176.975 655.16 176.912C655.26 176.882 655.34 176.879 655.401 176.901C655.446 176.915 655.474 176.941 655.485 176.978C655.53 177.128 655.327 177.473 654.877 178.015C653.83 179.197 652.93 180.416 652.177 181.674C651.873 182.158 651.676 182.591 651.586 182.971C651.491 183.339 651.426 183.827 651.39 184.435C651.137 188.098 650.375 191.559 649.105 194.818C648.97 195.184 648.819 195.453 648.653 195.625C648.478 195.813 648.334 195.924 648.222 195.957C648.022 196.017 647.779 195.974 647.491 195.829C647.289 195.699 647.155 195.522 647.088 195.297L647.071 195.241C647.013 195 646.982 194.737 646.979 194.453C646.952 193.361 647.11 192.159 647.453 190.847C647.779 189.527 648.189 188.236 648.683 186.975C649.173 185.701 649.635 184.585 650.069 183.627C650.286 183.168 650.432 182.771 650.509 182.436C650.582 182.088 650.613 181.644 650.601 181.104C650.612 179.864 650.497 178.703 650.255 177.62L650.211 177.47C650.158 177.296 650.089 177.221 650.001 177.247C649.914 177.273 649.805 177.387 649.675 177.589ZM650.08 185.988C649.484 187.225 648.967 188.657 648.527 190.282C648.097 191.891 647.878 193.186 647.872 194.167C647.864 194.413 647.873 194.581 647.899 194.668C647.921 194.743 647.951 194.775 647.988 194.764C648.063 194.741 648.161 194.59 648.281 194.309C648.689 193.4 649.092 192.22 649.488 190.77C649.897 189.317 650.17 187.748 650.306 186.063C650.32 185.882 650.32 185.767 650.305 185.717C650.298 185.692 650.288 185.681 650.275 185.685C650.238 185.696 650.173 185.797 650.08 185.988ZM656.005 162.862C655.967 162.371 656.031 162.039 656.197 161.867C656.261 161.807 656.324 161.768 656.387 161.75C656.499 161.716 656.616 161.743 656.736 161.829C656.857 161.915 656.949 162.064 657.012 162.276C657.053 162.414 657.081 162.575 657.096 162.761L659.077 185.608C659.09 186.243 658.99 186.592 658.778 186.655L658.759 186.661C658.609 186.706 658.484 186.559 658.384 186.223C658.343 186.085 658.305 185.913 658.271 185.706L656.005 162.862ZM658.42 189.351C658.504 189.04 658.642 188.843 658.834 188.758L658.928 188.73C659.09 188.682 659.238 188.699 659.371 188.782C659.459 188.85 659.524 188.953 659.565 189.091C659.591 189.178 659.608 189.281 659.617 189.401C659.589 189.763 659.472 189.988 659.268 190.076C659.234 190.1 659.198 190.117 659.161 190.128C658.999 190.177 658.839 190.143 658.682 190.026C658.578 189.949 658.505 189.841 658.464 189.704C658.434 189.604 658.419 189.486 658.42 189.351Z" fill="white"/>
<path d="M15.145 26.37V72H4.03V26.37H15.145ZM43.4149 62.575V72H37.7599C33.7299 72 30.5883 71.025 28.3349 69.075C26.0816 67.0817 24.9549 63.8533 24.9549 59.39V44.96H20.5349V35.73H24.9549V26.89H36.0699V35.73H43.3499V44.96H36.0699V59.52C36.0699 60.6033 36.3299 61.3833 36.8499 61.86C37.3699 62.3367 38.2366 62.575 39.4499 62.575H43.4149ZM52.1412 26.37H63.5162L56.2362 43.79H48.7612L52.1412 26.37ZM84.8006 72.52C81.6373 72.52 78.8206 71.9783 76.3506 70.895C73.8806 69.8117 71.9306 68.3383 70.5006 66.475C69.0706 64.5683 68.269 62.445 68.0956 60.105H79.0806C79.2106 61.3617 79.7956 62.38 80.8356 63.16C81.8756 63.94 83.154 64.33 84.6706 64.33C86.0573 64.33 87.119 64.07 87.8556 63.55C88.6356 62.9867 89.0256 62.2717 89.0256 61.405C89.0256 60.365 88.484 59.6067 87.4006 59.13C86.3173 58.61 84.5623 58.0467 82.1356 57.44C79.5356 56.8333 77.369 56.205 75.6356 55.555C73.9023 54.8617 72.4073 53.8 71.1506 52.37C69.894 50.8967 69.2656 48.925 69.2656 46.455C69.2656 44.375 69.829 42.49 70.9556 40.8C72.1256 39.0667 73.8156 37.7017 76.0256 36.705C78.279 35.7083 80.944 35.21 84.0206 35.21C88.5706 35.21 92.1456 36.3367 94.7456 38.59C97.389 40.8433 98.9056 43.8333 99.2956 47.56H89.0256C88.8523 46.3033 88.289 45.3067 87.3356 44.57C86.4256 43.8333 85.2123 43.465 83.6956 43.465C82.3956 43.465 81.399 43.725 80.7056 44.245C80.0123 44.7217 79.6656 45.3933 79.6656 46.26C79.6656 47.3 80.2073 48.08 81.2906 48.6C82.4173 49.12 84.1506 49.64 86.4906 50.16C89.1773 50.8533 91.3656 51.5467 93.0556 52.24C94.7456 52.89 96.219 53.9733 97.4756 55.49C98.7756 56.9633 99.4473 58.9567 99.4906 61.47C99.4906 63.5933 98.884 65.5 97.6706 67.19C96.5006 68.8367 94.789 70.1367 92.5356 71.09C90.3256 72.0433 87.7473 72.52 84.8006 72.52ZM142.165 35.34C146.412 35.34 149.792 36.7267 152.305 39.5C154.862 42.23 156.14 46 156.14 50.81V72H145.09V52.305C145.09 49.8783 144.462 47.9933 143.205 46.65C141.948 45.3067 140.258 44.635 138.135 44.635C136.012 44.635 134.322 45.3067 133.065 46.65C131.808 47.9933 131.18 49.8783 131.18 52.305V72H120.065V35.73H131.18V40.54C132.307 38.9367 133.823 37.68 135.73 36.77C137.637 35.8167 139.782 35.34 142.165 35.34ZM180.374 72.52C176.821 72.52 173.614 71.7617 170.754 70.245C167.937 68.7283 165.706 66.5617 164.059 63.745C162.456 60.9283 161.654 57.635 161.654 53.865C161.654 50.1383 162.477 46.8667 164.124 44.05C165.771 41.19 168.024 39.0017 170.884 37.485C173.744 35.9683 176.951 35.21 180.504 35.21C184.057 35.21 187.264 35.9683 190.124 37.485C192.984 39.0017 195.237 41.19 196.884 44.05C198.531 46.8667 199.354 50.1383 199.354 53.865C199.354 57.5917 198.509 60.885 196.819 63.745C195.172 66.5617 192.897 68.7283 189.994 70.245C187.134 71.7617 183.927 72.52 180.374 72.52ZM180.374 62.9C182.497 62.9 184.296 62.12 185.769 60.56C187.286 59 188.044 56.7683 188.044 53.865C188.044 50.9617 187.307 48.73 185.834 47.17C184.404 45.61 182.627 44.83 180.504 44.83C178.337 44.83 176.539 45.61 175.109 47.17C173.679 48.6867 172.964 50.9183 172.964 53.865C172.964 56.7683 173.657 59 175.044 60.56C176.474 62.12 178.251 62.9 180.374 62.9ZM225.466 62.575V72H219.811C215.781 72 212.639 71.025 210.386 69.075C208.132 67.0817 207.006 63.8533 207.006 59.39V44.96H202.586V35.73H207.006V26.89H218.121V35.73H225.401V44.96H218.121V59.52C218.121 60.6033 218.381 61.3833 218.901 61.86C219.421 62.3367 220.287 62.575 221.501 62.575H225.466ZM250.956 31.96C249.006 31.96 247.403 31.3967 246.146 30.27C244.933 29.1 244.326 27.67 244.326 25.98C244.326 24.2467 244.933 22.8167 246.146 21.69C247.403 20.52 249.006 19.935 250.956 19.935C252.863 19.935 254.423 20.52 255.636 21.69C256.893 22.8167 257.521 24.2467 257.521 25.98C257.521 27.67 256.893 29.1 255.636 30.27C254.423 31.3967 252.863 31.96 250.956 31.96ZM256.546 76.68C256.546 81.1433 255.42 84.35 253.166 86.3C250.913 88.2933 247.771 89.29 243.741 89.29H239.386V79.865H242.051C243.265 79.865 244.131 79.6267 244.651 79.15C245.171 78.6733 245.431 77.8933 245.431 76.81V35.73H256.546V76.68ZM300.353 35.73V72H289.238V67.06C288.111 68.6633 286.573 69.9633 284.623 70.96C282.716 71.9133 280.593 72.39 278.253 72.39C275.479 72.39 273.031 71.7833 270.908 70.57C268.784 69.3133 267.138 67.515 265.968 65.175C264.798 62.835 264.213 60.0833 264.213 56.92V35.73H275.263V55.425C275.263 57.8517 275.891 59.7367 277.148 61.08C278.404 62.4233 280.094 63.095 282.218 63.095C284.384 63.095 286.096 62.4233 287.353 61.08C288.609 59.7367 289.238 57.8517 289.238 55.425V35.73H300.353ZM323.092 72.52C319.928 72.52 317.112 71.9783 314.642 70.895C312.172 69.8117 310.222 68.3383 308.792 66.475C307.362 64.5683 306.56 62.445 306.387 60.105H317.372C317.502 61.3617 318.087 62.38 319.127 63.16C320.167 63.94 321.445 64.33 322.962 64.33C324.348 64.33 325.41 64.07 326.147 63.55C326.927 62.9867 327.317 62.2717 327.317 61.405C327.317 60.365 326.775 59.6067 325.692 59.13C324.608 58.61 322.853 58.0467 320.427 57.44C317.827 56.8333 315.66 56.205 313.927 55.555C312.193 54.8617 310.698 53.8 309.442 52.37C308.185 50.8967 307.557 48.925 307.557 46.455C307.557 44.375 308.12 42.49 309.247 40.8C310.417 39.0667 312.107 37.7017 314.317 36.705C316.57 35.7083 319.235 35.21 322.312 35.21C326.862 35.21 330.437 36.3367 333.037 38.59C335.68 40.8433 337.197 43.8333 337.587 47.56H327.317C327.143 46.3033 326.58 45.3067 325.627 44.57C324.717 43.8333 323.503 43.465 321.987 43.465C320.687 43.465 319.69 43.725 318.997 44.245C318.303 44.7217 317.957 45.3933 317.957 46.26C317.957 47.3 318.498 48.08 319.582 48.6C320.708 49.12 322.442 49.64 324.782 50.16C327.468 50.8533 329.657 51.5467 331.347 52.24C333.037 52.89 334.51 53.9733 335.767 55.49C337.067 56.9633 337.738 58.9567 337.782 61.47C337.782 63.5933 337.175 65.5 335.962 67.19C334.792 68.8367 333.08 70.1367 330.827 71.09C328.617 72.0433 326.038 72.52 323.092 72.52ZM364.797 62.575V72H359.142C355.112 72 351.97 71.025 349.717 69.075C347.463 67.0817 346.337 63.8533 346.337 59.39V44.96H341.917V35.73H346.337V26.89H357.452V35.73H364.732V44.96H357.452V59.52C357.452 60.6033 357.712 61.3833 358.232 61.86C358.752 62.3367 359.618 62.575 360.832 62.575H364.797ZM382.552 53.8C382.552 50.0733 383.246 46.8017 384.632 43.985C386.062 41.1683 387.991 39.0017 390.417 37.485C392.844 35.9683 395.552 35.21 398.542 35.21C401.099 35.21 403.331 35.73 405.237 36.77C407.187 37.81 408.682 39.175 409.722 40.865V35.73H420.837V72H409.722V66.865C408.639 68.555 407.122 69.92 405.172 70.96C403.266 72 401.034 72.52 398.477 72.52C395.531 72.52 392.844 71.7617 390.417 70.245C387.991 68.685 386.062 66.4967 384.632 63.68C383.246 60.82 382.552 57.5267 382.552 53.8ZM409.722 53.865C409.722 51.0917 408.942 48.9033 407.382 47.3C405.866 45.6967 404.002 44.895 401.792 44.895C399.582 44.895 397.697 45.6967 396.137 47.3C394.621 48.86 393.862 51.0267 393.862 53.8C393.862 56.5733 394.621 58.7833 396.137 60.43C397.697 62.0333 399.582 62.835 401.792 62.835C404.002 62.835 405.866 62.0333 407.382 60.43C408.942 58.8267 409.722 56.6383 409.722 53.865ZM440.768 49.12C440.768 44.6133 441.743 40.605 443.693 37.095C445.643 33.5417 448.351 30.79 451.818 28.84C455.328 26.8467 459.293 25.85 463.713 25.85C469.13 25.85 473.766 27.28 477.623 30.14C481.48 33 484.058 36.9 485.358 41.84H473.138C472.228 39.9333 470.928 38.4817 469.238 37.485C467.591 36.4883 465.706 35.99 463.583 35.99C460.16 35.99 457.386 37.1817 455.263 39.565C453.14 41.9483 452.078 45.1333 452.078 49.12C452.078 53.1067 453.14 56.2917 455.263 58.675C457.386 61.0583 460.16 62.25 463.583 62.25C465.706 62.25 467.591 61.7517 469.238 60.755C470.928 59.7583 472.228 58.3067 473.138 56.4H485.358C484.058 61.34 481.48 65.24 477.623 68.1C473.766 70.9167 469.13 72.325 463.713 72.325C459.293 72.325 455.328 71.35 451.818 69.4C448.351 67.4067 445.643 64.655 443.693 61.145C441.743 57.635 440.768 53.6267 440.768 49.12ZM508.675 72.52C505.121 72.52 501.915 71.7617 499.055 70.245C496.238 68.7283 494.006 66.5617 492.36 63.745C490.756 60.9283 489.955 57.635 489.955 53.865C489.955 50.1383 490.778 46.8667 492.425 44.05C494.071 41.19 496.325 39.0017 499.185 37.485C502.045 35.9683 505.251 35.21 508.805 35.21C512.358 35.21 515.565 35.9683 518.425 37.485C521.285 39.0017 523.538 41.19 525.185 44.05C526.831 46.8667 527.655 50.1383 527.655 53.865C527.655 57.5917 526.81 60.885 525.12 63.745C523.473 66.5617 521.198 68.7283 518.295 70.245C515.435 71.7617 512.228 72.52 508.675 72.52ZM508.675 62.9C510.798 62.9 512.596 62.12 514.07 60.56C515.586 59 516.345 56.7683 516.345 53.865C516.345 50.9617 515.608 48.73 514.135 47.17C512.705 45.61 510.928 44.83 508.805 44.83C506.638 44.83 504.84 45.61 503.41 47.17C501.98 48.6867 501.265 50.9183 501.265 53.865C501.265 56.7683 501.958 59 503.345 60.56C504.775 62.12 506.551 62.9 508.675 62.9ZM551.751 44.96H545.771V72H534.656V44.96H530.626V35.73H534.656V34.69C534.656 30.2267 535.935 26.8467 538.491 24.55C541.048 22.21 544.796 21.04 549.736 21.04C550.56 21.04 551.166 21.0617 551.556 21.105V30.53C549.433 30.4 547.938 30.7033 547.071 31.44C546.205 32.1767 545.771 33.4983 545.771 35.405V35.73H551.751V44.96ZM575.174 44.96H569.194V72H558.079V44.96H554.049V35.73H558.079V34.69C558.079 30.2267 559.358 26.8467 561.914 24.55C564.471 22.21 568.219 21.04 573.159 21.04C573.983 21.04 574.589 21.0617 574.979 21.105V30.53C572.856 30.4 571.361 30.7033 570.494 31.44C569.628 32.1767 569.194 33.4983 569.194 35.405V35.73H575.174V44.96ZM614.587 53.28C614.587 54.32 614.522 55.4033 614.392 56.53H589.237C589.411 58.7833 590.126 60.5167 591.382 61.73C592.682 62.9 594.264 63.485 596.127 63.485C598.901 63.485 600.829 62.315 601.912 59.975H613.742C613.136 62.3583 612.031 64.5033 610.427 66.41C608.867 68.3167 606.896 69.8117 604.512 70.895C602.129 71.9783 599.464 72.52 596.517 72.52C592.964 72.52 589.801 71.7617 587.027 70.245C584.254 68.7283 582.087 66.5617 580.527 63.745C578.967 60.9283 578.187 57.635 578.187 53.865C578.187 50.095 578.946 46.8017 580.462 43.985C582.022 41.1683 584.189 39.0017 586.962 37.485C589.736 35.9683 592.921 35.21 596.517 35.21C600.027 35.21 603.147 35.9467 605.877 37.42C608.607 38.8933 610.731 40.995 612.247 43.725C613.807 46.455 614.587 49.64 614.587 53.28ZM603.212 50.355C603.212 48.4483 602.562 46.9317 601.262 45.805C599.962 44.6783 598.337 44.115 596.387 44.115C594.524 44.115 592.942 44.6567 591.642 45.74C590.386 46.8233 589.606 48.3617 589.302 50.355H603.212ZM654.641 53.28C654.641 54.32 654.576 55.4033 654.446 56.53H629.291C629.464 58.7833 630.179 60.5167 631.436 61.73C632.736 62.9 634.318 63.485 636.181 63.485C638.954 63.485 640.883 62.315 641.966 59.975H653.796C653.189 62.3583 652.084 64.5033 650.481 66.41C648.921 68.3167 646.949 69.8117 644.566 70.895C642.183 71.9783 639.518 72.52 636.571 72.52C633.018 72.52 629.854 71.7617 627.081 70.245C624.308 68.7283 622.141 66.5617 620.581 63.745C619.021 60.9283 618.241 57.635 618.241 53.865C618.241 50.095 618.999 46.8017 620.516 43.985C622.076 41.1683 624.243 39.0017 627.016 37.485C629.789 35.9683 632.974 35.21 636.571 35.21C640.081 35.21 643.201 35.9467 645.931 37.42C648.661 38.8933 650.784 40.995 652.301 43.725C653.861 46.455 654.641 49.64 654.641 53.28ZM643.266 50.355C643.266 48.4483 642.616 46.9317 641.316 45.805C640.016 44.6783 638.391 44.115 636.441 44.115C634.578 44.115 632.996 44.6567 631.696 45.74C630.439 46.8233 629.659 48.3617 629.356 50.355H643.266ZM15.145 131.37V177H4.03V131.37H15.145ZM43.4149 167.575V177H37.7599C33.7299 177 30.5883 176.025 28.3349 174.075C26.0816 172.082 24.9549 168.853 24.9549 164.39V149.96H20.5349V140.73H24.9549V131.89H36.0699V140.73H43.3499V149.96H36.0699V164.52C36.0699 165.603 36.3299 166.383 36.8499 166.86C37.3699 167.337 38.2366 167.575 39.4499 167.575H43.4149ZM52.1412 131.37H63.5162L56.2362 148.79H48.7612L52.1412 131.37ZM84.8006 177.52C81.6373 177.52 78.8206 176.978 76.3506 175.895C73.8806 174.812 71.9306 173.338 70.5006 171.475C69.0706 169.568 68.269 167.445 68.0956 165.105H79.0806C79.2106 166.362 79.7956 167.38 80.8356 168.16C81.8756 168.94 83.154 169.33 84.6706 169.33C86.0573 169.33 87.119 169.07 87.8556 168.55C88.6356 167.987 89.0256 167.272 89.0256 166.405C89.0256 165.365 88.484 164.607 87.4006 164.13C86.3173 163.61 84.5623 163.047 82.1356 162.44C79.5356 161.833 77.369 161.205 75.6356 160.555C73.9023 159.862 72.4073 158.8 71.1506 157.37C69.894 155.897 69.2656 153.925 69.2656 151.455C69.2656 149.375 69.829 147.49 70.9556 145.8C72.1256 144.067 73.8156 142.702 76.0256 141.705C78.279 140.708 80.944 140.21 84.0206 140.21C88.5706 140.21 92.1456 141.337 94.7456 143.59C97.389 145.843 98.9056 148.833 99.2956 152.56H89.0256C88.8523 151.303 88.289 150.307 87.3356 149.57C86.4256 148.833 85.2123 148.465 83.6956 148.465C82.3956 148.465 81.399 148.725 80.7056 149.245C80.0123 149.722 79.6656 150.393 79.6656 151.26C79.6656 152.3 80.2073 153.08 81.2906 153.6C82.4173 154.12 84.1506 154.64 86.4906 155.16C89.1773 155.853 91.3656 156.547 93.0556 157.24C94.7456 157.89 96.219 158.973 97.4756 160.49C98.7756 161.963 99.4473 163.957 99.4906 166.47C99.4906 168.593 98.884 170.5 97.6706 172.19C96.5006 173.837 94.789 175.137 92.5356 176.09C90.3256 177.043 87.7473 177.52 84.8006 177.52Z" fill="white"/>
<path d="M135.396 177.49C129.656 177.49 124.943 176.137 121.256 173.43C117.57 170.677 115.586 166.757 115.306 161.67H129.936C130.076 163.397 130.59 164.657 131.476 165.45C132.363 166.243 133.506 166.64 134.906 166.64C136.166 166.64 137.193 166.337 137.986 165.73C138.826 165.077 139.246 164.19 139.246 163.07C139.246 161.623 138.57 160.503 137.216 159.71C135.863 158.917 133.67 158.03 130.636 157.05C127.416 155.977 124.803 154.95 122.796 153.97C120.836 152.943 119.11 151.473 117.616 149.56C116.17 147.6 115.446 145.057 115.446 141.93C115.446 138.757 116.24 136.05 117.826 133.81C119.413 131.523 121.606 129.797 124.406 128.63C127.206 127.463 130.38 126.88 133.926 126.88C139.666 126.88 144.24 128.233 147.646 130.94C151.1 133.6 152.943 137.357 153.176 142.21H138.266C138.22 140.717 137.753 139.597 136.866 138.85C136.026 138.103 134.93 137.73 133.576 137.73C132.55 137.73 131.71 138.033 131.056 138.64C130.403 139.247 130.076 140.11 130.076 141.23C130.076 142.163 130.426 142.98 131.126 143.68C131.873 144.333 132.783 144.917 133.856 145.43C134.93 145.897 136.516 146.503 138.616 147.25C141.743 148.323 144.31 149.397 146.316 150.47C148.37 151.497 150.12 152.967 151.566 154.88C153.06 156.747 153.806 159.127 153.806 162.02C153.806 164.96 153.06 167.597 151.566 169.93C150.12 172.263 147.996 174.107 145.196 175.46C142.443 176.813 139.176 177.49 135.396 177.49ZM197.355 127.65V138.57H184.195V177H170.475V138.57H157.455V127.65H197.355ZM233.651 168.95H216.151L213.491 177H199.071L217.061 127.65H232.881L250.801 177H236.311L233.651 168.95ZM230.221 158.45L224.901 142.49L219.651 158.45H230.221ZM280.263 177L270.463 158.8H268.993V177H255.273V127.65H276.903C280.869 127.65 284.229 128.35 286.983 129.75C289.736 131.103 291.813 132.993 293.213 135.42C294.613 137.8 295.313 140.483 295.313 143.47C295.313 146.83 294.379 149.793 292.513 152.36C290.693 154.88 288.009 156.677 284.463 157.75L295.593 177H280.263ZM268.993 149.42H275.783C277.649 149.42 279.049 148.977 279.983 148.09C280.916 147.203 281.383 145.92 281.383 144.24C281.383 142.653 280.893 141.417 279.913 140.53C278.979 139.597 277.603 139.13 275.783 139.13H268.993V149.42ZM333.052 151.66C335.945 152.313 338.232 153.76 339.912 156C341.639 158.193 342.502 160.713 342.502 163.56C342.502 167.76 341.055 171.05 338.162 173.43C335.269 175.81 331.209 177 325.982 177H301.552V127.65H325.212C330.252 127.65 334.195 128.77 337.042 131.01C339.935 133.25 341.382 136.4 341.382 140.46C341.382 143.353 340.612 145.78 339.072 147.74C337.579 149.653 335.572 150.96 333.052 151.66ZM315.272 147.25H322.202C325.655 147.25 327.382 145.827 327.382 142.98C327.382 140.04 325.655 138.57 322.202 138.57H315.272V147.25ZM323.252 165.94C326.705 165.94 328.432 164.493 328.432 161.6C328.432 160.107 327.965 158.963 327.032 158.17C326.145 157.377 324.862 156.98 323.182 156.98H315.272V165.94H323.252ZM361.955 127.65V156.28C361.955 158.94 362.561 160.993 363.775 162.44C365.035 163.887 366.925 164.61 369.445 164.61C371.965 164.61 373.855 163.887 375.115 162.44C376.421 160.947 377.075 158.893 377.075 156.28V127.65H390.795V156.28C390.795 160.807 389.838 164.68 387.925 167.9C386.011 171.073 383.398 173.477 380.085 175.11C376.818 176.697 373.178 177.49 369.165 177.49C365.151 177.49 361.558 176.697 358.385 175.11C355.258 173.477 352.785 171.073 350.965 167.9C349.191 164.727 348.305 160.853 348.305 156.28V127.65H361.955ZM396.669 152.22C396.669 147.367 397.672 143.05 399.679 139.27C401.732 135.443 404.625 132.48 408.359 130.38C412.092 128.233 416.385 127.16 421.239 127.16C427.399 127.16 432.579 128.817 436.779 132.13C440.979 135.397 443.685 139.853 444.899 145.5H430.129C429.242 143.633 428.005 142.21 426.419 141.23C424.879 140.25 423.082 139.76 421.029 139.76C417.855 139.76 415.312 140.903 413.399 143.19C411.532 145.43 410.599 148.44 410.599 152.22C410.599 156.047 411.532 159.103 413.399 161.39C415.312 163.63 417.855 164.75 421.029 164.75C423.082 164.75 424.879 164.26 426.419 163.28C428.005 162.3 429.242 160.877 430.129 159.01H444.899C443.685 164.657 440.979 169.137 436.779 172.45C432.579 175.717 427.399 177.35 421.239 177.35C416.385 177.35 412.092 176.3 408.359 174.2C404.625 172.053 401.732 169.09 399.679 165.31C397.672 161.483 396.669 157.12 396.669 152.22ZM480.586 177L465.116 155.37V177H451.396V127.65H465.116V148.93L480.446 127.65H496.266L478.136 151.59L497.176 177H480.586ZM520.807 177.49C515.067 177.49 510.353 176.137 506.667 173.43C502.98 170.677 500.997 166.757 500.717 161.67H515.347C515.487 163.397 516 164.657 516.887 165.45C517.773 166.243 518.917 166.64 520.317 166.64C521.577 166.64 522.603 166.337 523.397 165.73C524.237 165.077 524.657 164.19 524.657 163.07C524.657 161.623 523.98 160.503 522.627 159.71C521.273 158.917 519.08 158.03 516.047 157.05C512.827 155.977 510.213 154.95 508.207 153.97C506.247 152.943 504.52 151.473 503.027 149.56C501.58 147.6 500.857 145.057 500.857 141.93C500.857 138.757 501.65 136.05 503.237 133.81C504.823 131.523 507.017 129.797 509.817 128.63C512.617 127.463 515.79 126.88 519.337 126.88C525.077 126.88 529.65 128.233 533.057 130.94C536.51 133.6 538.353 137.357 538.587 142.21H523.677C523.63 140.717 523.163 139.597 522.277 138.85C521.437 138.103 520.34 137.73 518.987 137.73C517.96 137.73 517.12 138.033 516.467 138.64C515.813 139.247 515.487 140.11 515.487 141.23C515.487 142.163 515.837 142.98 516.537 143.68C517.283 144.333 518.193 144.917 519.267 145.43C520.34 145.897 521.927 146.503 524.027 147.25C527.153 148.323 529.72 149.397 531.727 150.47C533.78 151.497 535.53 152.967 536.977 154.88C538.47 156.747 539.217 159.127 539.217 162.02C539.217 164.96 538.47 167.597 536.977 169.93C535.53 172.263 533.407 174.107 530.607 175.46C527.853 176.813 524.587 177.49 520.807 177.49ZM563.935 125.13L562.325 158.52H550.635L549.025 125.13H563.935ZM556.515 177.56C554.088 177.56 552.128 176.907 550.635 175.6C549.188 174.247 548.465 172.543 548.465 170.49C548.465 168.437 549.188 166.733 550.635 165.38C552.128 164.027 554.088 163.35 556.515 163.35C558.895 163.35 560.808 164.027 562.255 165.38C563.748 166.733 564.495 168.437 564.495 170.49C564.495 172.497 563.748 174.177 562.255 175.53C560.808 176.883 558.895 177.56 556.515 177.56Z" fill="#FFB32F"/>
</svg>
